<svg width="24" height="24" viewBox="0 0 24 24" fill="none"
  xmlns="http://www.w3.org/2000/svg">
  <path d="M9.46634 11.5494H3.97317C3.70832 11.5509 3.4458 11.4999 3.20082 11.3993C2.95583 11.2987 2.73325 11.1504 2.54598 10.9631C2.3587 10.7759 2.21045 10.5533 2.10983 10.3083C2.0092 10.0633 1.95819 9.8008 1.95975 9.53596V4.01345C1.95819 3.74861 2.0092 3.48609 2.10983 3.2411C2.21045 2.99612 2.3587 2.77354 2.54598 2.58626C2.73325 2.39899 2.95583 2.25074 3.20082 2.15011C3.4458 2.04948 3.70832 1.99847 3.97317 2.00003H9.46749C9.73233 1.99847 9.99485 2.04948 10.2398 2.15011C10.4848 2.25074 10.7074 2.39899 10.8947 2.58626C11.082 2.77354 11.2302 2.99612 11.3308 3.2411C11.4315 3.48609 11.4825 3.74861 11.4809 4.01345V9.50806C11.4829 9.77444 11.4323 10.0386 11.3321 10.2854C11.2319 10.5322 11.084 10.7569 10.8969 10.9465C10.7098 11.1361 10.4872 11.287 10.2417 11.3904C9.99627 11.4939 9.73281 11.548 9.46643 11.5496L9.46634 11.5494ZM3.97317 3.43819C3.82068 3.43847 3.67452 3.49917 3.5667 3.60699C3.45888 3.71481 3.39818 3.86097 3.39791 4.01345V9.50806C3.39821 9.66054 3.45891 9.80668 3.56673 9.9145C3.67455 10.0223 3.82069 10.083 3.97317 10.0833H9.46749C9.61997 10.083 9.76613 10.0223 9.87395 9.91452C9.98177 9.8067 10.0425 9.66055 10.0428 9.50806L10.0417 4.01374C10.0414 3.86126 9.98068 3.71512 9.87287 3.6073C9.76505 3.49948 9.61891 3.43878 9.46643 3.43848L3.97317 3.43819ZM20.2908 11.5494H14.7683C14.5035 11.5509 14.241 11.4999 13.996 11.3993C13.751 11.2987 13.5284 11.1504 13.3411 10.9631C13.1539 10.7759 13.0056 10.5533 12.905 10.3083C12.8044 10.0633 12.7534 9.8008 12.7549 9.53596V4.01345C12.7534 3.74861 12.8044 3.48609 12.905 3.2411C13.0056 2.99612 13.1539 2.77354 13.3411 2.58626C13.5284 2.39899 13.751 2.25074 13.996 2.15011C14.241 2.04948 14.5035 1.99847 14.7683 2.00003H20.2908C20.5557 1.99847 20.8182 2.04948 21.0632 2.15011C21.3082 2.25074 21.5308 2.39899 21.718 2.58626C21.9053 2.77354 22.0536 2.99612 22.1542 3.2411C22.2548 3.48609 22.3058 3.74861 22.3043 4.01345V9.50806C22.3037 10.0445 22.0923 10.5592 21.7156 10.9411C21.3389 11.3231 20.8272 11.5416 20.2908 11.5496V11.5494ZM14.7683 3.43819C14.6158 3.43847 14.4697 3.49917 14.3619 3.60699C14.254 3.71481 14.1933 3.86097 14.1931 4.01345V9.50806C14.1934 9.66054 14.2541 9.80668 14.3619 9.9145C14.4697 10.0223 14.6159 10.083 14.7683 10.0833H20.2908C20.4433 10.083 20.5895 10.0223 20.6973 9.91452C20.8051 9.8067 20.8658 9.66055 20.8661 9.50806V4.01374C20.8658 3.86126 20.8051 3.7151 20.6973 3.60728C20.5895 3.49945 20.4433 3.43876 20.2908 3.43848L14.7683 3.43819ZM9.4951 22H4.00107C3.73622 22.0015 3.4737 21.9505 3.22872 21.8499C2.98373 21.7493 2.76115 21.601 2.57388 21.4137C2.3866 21.2265 2.23835 21.0039 2.13772 20.7589C2.0371 20.5139 1.98609 20.2514 1.98765 19.9865V14.4934C1.98609 14.2285 2.0371 13.966 2.13772 13.721C2.23835 13.476 2.3866 13.2535 2.57388 13.0662C2.76115 12.8789 2.98373 12.7307 3.22872 12.63C3.4737 12.5294 3.73622 12.4784 4.00107 12.48H9.49539C9.76023 12.4784 10.0228 12.5294 10.2677 12.63C10.5127 12.7307 10.7353 12.8789 10.9226 13.0662C11.1099 13.2535 11.2581 13.476 11.3587 13.721C11.4594 13.966 11.5104 14.2285 11.5088 14.4934V19.9877C11.5103 20.2525 11.4593 20.5149 11.3587 20.7598C11.258 21.0048 11.1097 21.2272 10.9225 21.4144C10.7352 21.6016 10.5126 21.7497 10.2676 21.8503C10.0227 21.9508 9.76017 22.0017 9.49539 22H9.4951ZM4.00078 13.9181C3.8483 13.9184 3.70214 13.9791 3.59431 14.0869C3.48649 14.1947 3.4258 14.3409 3.42552 14.4934V19.9877C3.42582 20.1402 3.48653 20.2863 3.59434 20.3941C3.70216 20.5019 3.8483 20.5627 4.00078 20.563H9.4951C9.64758 20.5627 9.79374 20.502 9.90156 20.3942C10.0094 20.2863 10.0701 20.1402 10.0704 19.9877V14.4934C10.0701 14.3409 10.0094 14.1947 9.90156 14.0869C9.79374 13.9791 9.64758 13.9184 9.4951 13.9181H4.00078ZM20.3196 22H14.8256C14.5607 22.0015 14.2982 21.9505 14.0532 21.8499C13.8082 21.7493 13.5857 21.601 13.3984 21.4137C13.2111 21.2265 13.0629 21.0039 12.9622 20.7589C12.8616 20.5139 12.8106 20.2514 12.8122 19.9865V14.4934C12.8106 14.2285 12.8616 13.966 12.9622 13.721C13.0629 13.476 13.2111 13.2535 13.3984 13.0662C13.5857 12.8789 13.8082 12.7307 14.0532 12.63C14.2982 12.5294 14.5607 12.4784 14.8256 12.48H20.3199C20.5847 12.4784 20.8473 12.5294 21.0922 12.63C21.3372 12.7307 21.5598 12.8789 21.7471 13.0662C21.9344 13.2535 22.0826 13.476 22.1832 13.721C22.2839 13.966 22.3349 14.2285 22.3333 14.4934V19.9877C22.3315 20.521 22.1187 21.032 21.7415 21.409C21.3643 21.786 20.8532 21.9984 20.3199 22H20.3196ZM14.8253 13.9181C14.6728 13.9184 14.5266 13.9791 14.4188 14.0869C14.311 14.1947 14.2503 14.3409 14.25 14.4934V19.9877C14.2503 20.1402 14.311 20.2863 14.4188 20.3941C14.5267 20.5019 14.6728 20.5627 14.8253 20.563H20.3196C20.4721 20.5627 20.6182 20.502 20.7261 20.3942C20.8339 20.2863 20.8946 20.1402 20.8949 19.9877V14.4934C20.8946 14.3409 20.8339 14.1947 20.7261 14.0869C20.6182 13.9791 20.4721 13.9184 20.3196 13.9181H14.8253Z" fill="url(#paint0_linear_208:6)" />
  <defs>
    <linearGradient id="paint0_linear_208:6" x1="12.1465" y1="2" x2="12.1465" y2="22" gradientUnits="userSpaceOnUse">
      <stop stop-color="#F04029" />
      <stop offset="0.5" stop-color="#FC7231" />
      <stop offset="1" stop-color="#ED4833" stop-opacity="0.9375" />
    </linearGradient>
  </defs>
</svg>